# xmcd
#
# Track frame offsets:
# 182
# 20312
# 40570
# 59085
#
# Disc length: 959 seconds
#
# Revision: 1
# Processed by: cddbd v1.4PL0 Copyright (c) Steve Scherf et al.
# Submitted via: Gronk 1.4
#
DISCID=2a03bd04
DTITLE=The Sugarcubes - Birthday
DYEAR=1900
DGENRE=blues
TTITLE0=Birthday - christmas eve
TTITLE1=Birthday - christmas day
TTITLE2=Birthday - christmas present
TTITLE3=Petrol (live)
EXTD=
EXTT0=
EXTT1=
EXTT2=
EXTT3=
PLAYORDER=
